<svg width="300" height="93" viewBox="0 0 300 93" fill="none" xmlns="http://www.w3.org/2000/svg">
<g clip-path="url(#clip0_33_310)">
<path fill-rule="evenodd" clip-rule="evenodd" d="M193.19 28.2441C181.846 28.3774 164.476 27.7941 140.507 27.4481C126.702 27.249 113.616 27.0823 106.483 27.0746C87.6208 27.0236 72.0466 28.0178 59.1892 29.5398C51.656 30.4316 45.0644 31.5256 39.2812 32.6999C30.3661 34.5102 23.4035 36.5658 17.973 38.6339C3.55503 44.1245 0.00012207 49.6838 0.00012207 49.6838C0.00012207 49.6838 2.97649 43.6454 17.1846 37.281C22.5552 34.8751 29.5323 32.4368 38.5497 30.3233C44.3754 28.9579 51.0626 27.7599 58.7052 26.7679C71.6743 25.0846 87.4193 24.0665 106.483 24.0149C113.628 24.0072 126.738 24.1044 140.567 24.3155C157.892 24.58 177.082 24.8297 187.569 24.3663C191.498 24.1913 194.834 21.8777 195.792 18.6612C196.653 15.7787 197.627 12.5146 197.989 11.3C198.072 11.0247 198.392 10.85 198.723 10.9003C202.268 11.4379 220.726 14.2386 224.482 14.8087C224.657 14.8352 224.811 14.9212 224.907 15.0465C225.003 15.1719 225.033 15.3253 224.991 15.4701C224.319 17.4064 221.183 23.86 208.57 26.6485C200.478 28.4372 198.354 28.1834 193.19 28.2441Z" fill="white"/>
<path fill-rule="evenodd" clip-rule="evenodd" d="M117.247 22.0973C117.247 22.0973 128.058 14.1151 140.818 8.1626C146.737 5.40121 153.086 3.12741 158.913 2.16035C166.335 0.99667 173.339 0.326454 179.988 0.0966398C191.559 -0.303444 202.043 0.575115 211.744 2.12964C225.738 4.37235 238.097 8.0726 249.773 11.5957C262.669 15.4872 278.923 18.8809 286.286 19.0664C289.017 19.1353 293.102 18.9379 293.102 18.9379C293.067 22.1265 291.498 23.839 289.745 25.3732C289.745 25.3732 261.694 18.5276 248.527 14.5121C237.027 11.0049 224.86 7.3175 211.078 5.02635C201.619 3.45397 191.399 2.55993 180.095 2.80148C173.573 2.94092 166.691 3.43562 159.386 4.44064C153.735 5.16666 147.563 7.21064 141.702 9.60004C128.661 14.9167 117.247 22.0973 117.247 22.0973Z" fill="white"/>
<path fill-rule="evenodd" clip-rule="evenodd" d="M278.994 26.2784C274.967 24.7501 261.908 20.5775 261.908 20.5775C261.908 20.5775 279.431 24.6471 283.946 25.6683C287.573 26.489 292.873 27.7326 296.099 29.9669C299.325 32.201 299.975 35.3203 299.975 35.3203C299.975 35.3203 287.64 35.6099 285.624 35.3246C284.229 35.1274 282.112 33.3076 282.122 33.3014C284.011 32.1413 286.867 29.2662 278.994 26.2784Z" fill="#F33235"/>
<path d="M50.769 68.7106H40.43L39.8117 62.7898H31.6374L28.4999 68.7106H24.2148L37.2495 45.0637H47.7205L50.769 68.7106ZM33.0949 60.0719H39.5018L38.4861 49.9423L33.0949 60.0719Z" fill="white"/>
<path d="M64.0246 60.2581C63.8773 60.8037 63.7607 61.2757 63.6718 61.6727C63.5828 62.0696 63.5383 62.442 63.5383 62.7898C63.5383 63.6588 63.9003 64.3544 64.6214 64.8755C65.3425 65.3966 66.4103 65.6578 67.8249 65.6578C68.8559 65.6578 69.7028 65.5091 70.3655 65.2104C71.0283 64.913 71.5729 64.516 72.001 64.0195C72.4275 63.5217 72.7666 62.9515 73.0166 62.3062C73.2667 61.661 73.4815 60.9783 73.6579 60.2581L77.4137 45.0637H81.4349L77.5901 60.3318C77.2956 61.524 76.8691 62.6411 76.3091 63.6833C75.7491 64.7268 74.9467 65.6448 73.9003 66.4388C72.854 67.234 71.507 67.8611 69.8577 68.3201C68.2084 68.7792 66.1602 69.0093 63.7162 69.0093C60.3287 69.0093 57.8249 68.5438 56.2047 67.6129C54.5846 66.6819 53.7745 65.2479 53.7745 63.3109C53.7745 62.442 53.9065 61.3378 54.1719 59.9969C54.4373 58.656 54.7764 57.2039 55.1875 55.6394L57.8831 45.0637H67.9138L64.0246 60.2581Z" fill="white"/>
<path d="M106.973 47.8941H99.8593L94.6016 68.7106H85.0572L90.3149 47.8941H83.2898L84.086 45.0637H107.724L106.973 47.8941Z" fill="white"/>
<path d="M121.952 44.6913C124.485 44.6913 126.541 44.9641 128.116 45.5111C129.692 46.0567 130.936 46.9011 131.849 48.0428C132.438 48.8122 132.895 49.6824 133.219 50.6496C133.543 51.6181 133.706 52.7352 133.706 54.0011C133.706 55.0937 133.587 56.1863 133.353 57.279C133.116 58.3716 132.785 59.4202 132.358 60.4249C131.93 61.4309 131.415 62.3748 130.81 63.2553C130.208 64.1372 129.537 64.913 128.801 65.5828C127.417 66.8487 125.818 67.737 124.006 68.2452C122.196 68.7546 119.964 69.0093 117.312 69.0093C114.75 69.0093 112.688 68.7857 111.126 68.3383C109.565 67.8922 108.328 67.1719 107.415 66.1789C106.766 65.4832 106.258 64.6027 105.89 63.5346C105.522 62.4679 105.338 61.127 105.338 59.5133C105.338 56.7579 105.919 54.2933 107.084 52.121C108.247 49.9488 109.904 48.229 112.055 46.9631C113.351 46.1938 114.795 45.6223 116.384 45.2499C117.975 44.8775 119.832 44.6913 121.952 44.6913ZM116.96 66.4026C117.636 66.4026 118.277 66.1479 118.88 65.6384C119.485 65.1303 120.045 64.4475 120.56 63.5903C121.076 62.7343 121.547 61.7593 121.975 60.668C122.401 59.5754 122.762 58.4453 123.057 57.279C123.351 56.1113 123.58 54.9515 123.742 53.7968C123.903 52.6421 123.985 51.5935 123.985 50.6496C123.985 49.3591 123.83 48.4721 123.52 47.9872C123.211 47.5036 122.762 47.2605 122.173 47.2605C121.495 47.2605 120.847 47.5101 120.229 48.0053C119.611 48.5031 119.029 49.1665 118.483 49.9979C117.938 50.8306 117.452 51.7862 117.026 52.8658C116.599 53.9455 116.231 55.0562 115.921 56.1993C115.611 57.341 115.376 58.4698 115.214 59.587C115.051 60.7042 114.971 61.7347 114.971 62.6787C114.971 64.0932 115.155 65.0682 115.524 65.6022C115.892 66.1349 116.37 66.4026 116.96 66.4026Z" fill="white"/>
<path d="M151.467 51.9155C151.556 51.5444 151.601 51.0349 151.601 50.3897C151.601 50.0173 151.571 49.6501 151.512 49.2906C151.453 48.9311 151.351 48.6079 151.203 48.3221C151.056 48.0364 150.835 47.814 150.54 47.6523C150.246 47.4907 149.862 47.4105 149.391 47.4105C148.86 47.4105 148.374 47.5101 147.932 47.7079C147.492 47.9071 147.101 48.1618 146.762 48.4721C146.423 48.7811 146.159 49.1419 145.967 49.5518C145.775 49.9617 145.68 50.3897 145.68 50.8358C145.68 51.4823 145.878 51.9775 146.277 52.3254C146.674 52.6732 147.197 52.9589 147.845 53.1826C148.492 53.405 149.229 53.5925 150.054 53.7412C150.88 53.8899 151.733 54.0632 152.616 54.2623C153.353 54.4356 154.089 54.6593 154.825 54.9321C155.562 55.2062 156.217 55.5721 156.792 56.0312C157.366 56.4902 157.831 57.0863 158.184 57.8182C158.538 58.5513 158.715 59.4629 158.715 60.5555C158.715 62.1201 158.347 63.4351 157.61 64.5031C156.874 65.5712 155.856 66.4388 154.562 67.1099C153.265 67.7797 151.726 68.2646 149.944 68.562C148.161 68.8594 146.225 69.0093 144.134 69.0093C142.012 69.0093 140.281 68.8904 138.942 68.6551C137.601 68.4197 136.548 68.165 135.783 67.8922C134.868 67.5689 134.192 67.1965 133.75 66.775L135.252 61.6727H143.029C143 61.8964 142.969 62.2002 142.94 62.5856C142.911 62.9696 142.895 63.2747 142.895 63.4971C142.895 63.7958 142.94 64.1062 143.029 64.4281C143.116 64.7514 143.258 65.0488 143.448 65.3229C143.64 65.5957 143.913 65.8181 144.266 65.9927C144.618 66.166 145.062 66.2539 145.591 66.2539C146.18 66.2539 146.703 66.1414 147.159 65.9177C147.616 65.694 148 65.416 148.308 65.0798C148.618 64.7449 148.853 64.3725 149.015 63.9626C149.178 63.5528 149.259 63.1506 149.259 62.7524C149.259 62.2067 149.104 61.7477 148.794 61.3753C148.486 61.0029 148.066 60.6861 147.535 60.4249C147.006 60.165 146.393 59.9413 145.702 59.7551C145.01 59.5689 144.295 59.3763 143.558 59.1784C142.851 59.0039 142.108 58.7931 141.327 58.5448C140.547 58.2966 139.833 57.9487 139.184 57.5026C138.537 57.0553 137.998 56.4902 137.572 55.8075C137.144 55.1248 136.93 54.2494 136.93 53.1826C136.93 51.5935 137.409 50.2591 138.366 49.1794C139.324 48.0984 140.533 47.2243 141.99 46.5533C143.448 45.8835 145.046 45.405 146.785 45.1206C148.523 44.8348 150.172 44.6913 151.733 44.6913C153.795 44.6913 155.57 44.8969 157.058 45.3068C158.544 45.7154 159.672 46.1938 160.438 46.7394L158.802 51.9155H151.467Z" fill="white"/>
<path d="M165.961 45.0637H184.563L183.856 47.8941H174.842L172.986 55.0808H180.542L179.835 57.875H172.279L170.246 65.844H179.261L178.598 68.7106H159.996L165.961 45.0637Z" fill="white"/>
<path d="M209.749 50.6871C209.749 52.1521 209.263 53.5046 208.29 54.7459C207.319 55.9872 205.712 56.9311 203.474 57.5763L208.6 68.7106H198.747L194.858 58.3961H194.371L191.765 68.7106H182.22L188.185 45.0637H199.807C201.162 45.0637 202.443 45.1322 203.65 45.2692C204.858 45.405 205.912 45.6778 206.811 46.0877C207.708 46.4976 208.423 47.0691 208.953 47.801C209.483 48.5341 209.749 49.4949 209.749 50.6871ZM197.023 56.0131C197.788 56.0131 198.445 55.7945 198.989 55.3614C199.534 54.9256 199.976 54.3994 200.315 53.7787C200.654 53.158 200.896 52.4934 201.044 51.7861C201.191 51.0776 201.265 50.4634 201.265 49.9423C201.265 49.297 201.133 48.7449 200.867 48.2859C200.602 47.8256 200.028 47.5967 199.144 47.5967H197.156L194.947 56.0131H197.023Z" fill="white"/>
<path d="M212.929 45.0637H223.005L224.507 61.0766L233.696 45.0637H238.071L224.993 68.7106H214.565L212.929 45.0637Z" fill="white"/>
<path d="M244.522 68.7106H234.979L240.944 45.0637H250.531L244.522 68.7106Z" fill="white"/>
<path d="M266.792 51.9155C266.88 51.5444 266.924 51.0349 266.924 50.3897C266.924 50.0173 266.895 49.6501 266.835 49.2906C266.777 48.9311 266.674 48.6079 266.527 48.3221C266.38 48.0364 266.159 47.814 265.864 47.6523C265.57 47.4907 265.186 47.4105 264.715 47.4105C264.184 47.4105 263.7 47.5101 263.258 47.7079C262.816 47.9071 262.425 48.1618 262.086 48.4721C261.748 48.7811 261.483 49.1419 261.291 49.5518C261.099 49.9617 261.004 50.3897 261.004 50.8358C261.004 51.4823 261.202 51.9775 261.599 52.3254C261.998 52.6732 262.52 52.9589 263.169 53.1826C263.816 53.405 264.553 53.5925 265.378 53.7412C266.202 53.8899 267.056 54.0632 267.94 54.2623C268.677 54.4356 269.413 54.6593 270.149 54.9321C270.886 55.2062 271.542 55.5721 272.116 56.0312C272.69 56.4902 273.155 57.0863 273.508 57.8182C273.862 58.5513 274.039 59.4629 274.039 60.5555C274.039 62.1201 273.67 63.4351 272.934 64.5031C272.198 65.5712 271.18 66.4388 269.884 67.1099C268.589 67.7797 267.049 68.2646 265.267 68.562C263.485 68.8594 261.549 69.0093 259.457 69.0093C257.336 69.0093 255.605 68.8904 254.266 68.6551C252.925 68.4197 251.872 68.165 251.105 67.8922C250.192 67.5689 249.516 67.1965 249.074 66.775L250.576 61.6727H258.353C258.322 61.8964 258.293 62.2002 258.264 62.5856C258.235 62.9696 258.219 63.2747 258.219 63.4971C258.219 63.7958 258.264 64.1062 258.353 64.4281C258.44 64.7514 258.581 65.0488 258.772 65.3229C258.963 65.5957 259.236 65.8181 259.589 65.9927C259.944 66.166 260.384 66.2539 260.915 66.2539C261.504 66.2539 262.027 66.1414 262.484 65.9177C262.94 65.694 263.324 65.416 263.632 65.0798C263.942 64.7449 264.178 64.3725 264.339 63.9626C264.502 63.5528 264.583 63.1506 264.583 62.7524C264.583 62.2067 264.428 61.7477 264.118 61.3753C263.81 61.0029 263.39 60.6861 262.859 60.4249C262.329 60.165 261.717 59.9413 261.025 59.7551C260.333 59.5689 259.618 59.3763 258.882 59.1784C258.176 59.0039 257.432 58.7931 256.651 58.5448C255.87 58.2966 255.155 57.9487 254.508 57.5026C253.861 57.0553 253.322 56.4902 252.896 55.8075C252.469 55.1248 252.254 54.2494 252.254 53.1826C252.254 51.5935 252.733 50.2591 253.69 49.1794C254.648 48.0984 255.855 47.2243 257.314 46.5533C258.772 45.8835 260.37 45.405 262.109 45.1206C263.845 44.8348 265.496 44.6913 267.056 44.6913C269.118 44.6913 270.893 44.8969 272.382 45.3068C273.868 45.7154 274.996 46.1938 275.762 46.7394L274.126 51.9155H266.792Z" fill="white"/>
<path d="M122.403 92.9214C125.005 92.9214 126.474 91.5339 126.474 89.3954V83.2121H125.652V89.3817C125.652 91.1527 124.552 92.2693 122.403 92.2693C120.252 92.2693 119.153 91.1527 119.153 89.3817V83.2121H118.331V89.3954C118.331 91.5339 119.8 92.9214 122.403 92.9214Z" fill="white"/>
<path d="M138.416 91.1248C138.093 91.3702 136.897 92.2692 134.942 92.2692C132.146 92.2692 130.126 90.4438 130.126 87.9781C130.126 85.5128 132.259 83.6874 134.893 83.6874C136.59 83.6874 137.786 84.4228 138.174 84.7089L138.465 84.0823C137.932 83.7006 136.687 83.0352 134.893 83.0352C131.791 83.0352 129.271 85.1586 129.271 87.9781C129.271 90.798 131.726 92.9214 134.942 92.9214C137.01 92.9214 138.384 92.0106 138.691 91.7382L138.416 91.1248Z" fill="white"/>
<path d="M141.505 92.7445H142.327V88.1952H149.003V92.7445H149.826V83.2121H149.003V87.5435H142.327V83.2121H141.505V92.7445Z" fill="white"/>
<path d="M155.694 92.7445H156.516V88.2098L160.038 83.2121H159.118L156.113 87.5288L153.14 83.2121H152.187L155.694 88.2098V92.7445Z" fill="white"/>
<path d="M165.099 92.7445H165.921V83.8506H169.169V83.2121H161.85V83.8506H165.099V92.7445Z" fill="white"/>
<path d="M172.757 83.2121H171.935V92.7443H172.757V83.2121Z" fill="white"/>
<path d="M176.314 92.7445H181.645V92.1061H177.136V83.2121H176.314V92.7445Z" fill="white"/>
</g>
<defs>
<clipPath id="clip0_33_310">
<rect width="300" height="93" fill="white"/>
</clipPath>
</defs>
</svg>
